<svg width="14" height="14" viewBox="0 0 14 14" fill="none" xmlns="http://www.w3.org/2000/svg">
<g id="user 4" clip-path="url(#clip0_3799_55434)">
<path id="Vector" d="M9.35842 8.1665H4.64158C3.87497 8.16743 3.14002 8.47238 2.59795 9.01445C2.05587 9.55653 1.75093 10.2915 1.75 11.0581V13.9998H12.25V11.0581C12.2491 10.2915 11.9441 9.55653 11.4021 9.01445C10.86 8.47238 10.125 8.16743 9.35842 8.1665Z" fill="#1B2561"/>
<path id="Vector_2" d="M7 7C8.933 7 10.5 5.433 10.5 3.5C10.5 1.567 8.933 0 7 0C5.067 0 3.5 1.567 3.5 3.5C3.5 5.433 5.067 7 7 7Z" fill="#1B2561"/>
</g>
<defs>
<clipPath id="clip0_3799_55434">
<rect width="14" height="14" fill="white"/>
</clipPath>
</defs>
</svg>
